<svg width="403" height="400" viewBox="0 0 403 500" fill="none" xmlns="http://www.w3.org/2000/svg">
<path d="M46.353 24.5399L55.2146 425.699H358.555L248.466 62.7131L46.353 24.5399Z" fill="#B7DDFF"/>
<path d="M38.5141 421.95L387.526 316.973L319.019 100.545L25.9033 184.39L38.5141 421.95Z" fill="#FCC75F"/>
<path d="M348.899 287.32L291.639 188.143L228.473 224.612L285.733 323.789L348.899 287.32Z" fill="#C84348"/>
<path d="M276.416 236.877L262.902 213.47L251.878 219.835L265.392 243.242L276.416 236.877Z" fill="#26274A"/>
<path d="M300.15 308.643L249.734 221.32L240.726 226.521L291.142 313.844L300.15 308.643Z" fill="#26274A"/>
<path d="M137.822 202.955L118.408 203.776L122.198 177.011L123.384 168.65L131.329 168.125L131.915 171.268L137.822 202.955Z" fill="#F6F4E7"/>
<path d="M131.915 171.268L122.198 177.011L123.384 168.65L131.329 168.125L131.915 171.268Z" fill="#26274A"/>
<path d="M129.271 169.83C138.182 169.83 145.406 162.606 145.406 153.695C145.406 144.784 138.182 137.56 129.271 137.56C120.36 137.56 113.136 144.784 113.136 153.695C113.136 162.606 120.36 169.83 129.271 169.83Z" fill="#F6F4E7"/>
<path d="M197.389 432.669L60.5591 431.333L63.9674 204.131L103.954 202.914L102.25 191.564L120.655 192.509L126.807 202.219L137.655 201.878L140.985 191.547L157.996 187.764L157.236 201.909C162.552 202.95 167.39 205.68 171.029 209.693C174.667 213.705 176.913 218.786 177.43 224.179L197.389 432.669Z" fill="#037EEE"/>
<path d="M241.152 320.74L263.879 312.56L319.185 295.927L283.146 297.996L316.251 279.693L278.759 291.097L309.414 269.07L273.807 287.941L294.182 261.929L261.162 283.592L256.987 275.733L245.112 293.146L231.162 295.269C234.376 303.804 237.764 312.273 241.152 320.74Z" fill="#F6F4E7"/>
<path d="M80.2149 190.498C71.1283 192.14 60.5182 201.002 56.418 205.682C53.1529 209.407 50.3512 213.637 48.9197 218.374C45.0104 231.247 54.9354 248.405 59.0833 260.344C59.0833 264.744 62.8325 271.183 64.3049 275.382L70.1808 292.297C73.7561 302.587 77.236 312.904 80.7705 323.211C81.752 326.077 97.1883 372.202 97.5326 372.099L259.768 324.509L238.637 290.498L130.365 295.368C126.343 295.552 118.879 262.144 117.635 258.296C112.409 242.163 106.608 226.23 100.232 210.498C96.8509 202.137 91.6634 188.429 80.2149 190.498Z" fill="#037EEE"/>
<path d="M62.8152 270.596L97.3551 372.277L189.482 345.262L60.668 407.294L62.8152 270.596Z" fill="#B7DDFF"/>
<path d="M114.179 244.342L114.267 244.683L128.02 297.093L154.537 293.804C154.537 293.804 132.144 286.98 114.179 244.342Z" fill="#B7DDFF"/>
<path d="M149.066 141.026C142.57 156.142 129.339 153.354 120.061 148.923C121.084 154.305 121.387 160.491 119.121 165.126C119.121 165.126 104.444 159.615 106.442 149.629C94.0456 145.59 52.4641 129.973 81.1179 110.092C114.519 86.9155 139.68 99.5876 139.369 122.052C139.345 125.354 138.619 128.612 137.239 131.612L149.066 141.026Z" fill="#C84348"/>
<path d="M281.868 356.169H176.892V487.048H281.868V356.169Z" fill="#FCC75F"/>
<path d="M186.094 356.169H176.892V487.048H186.094V356.169Z" fill="#C84348"/>
<path d="M203.136 355.828C203.136 355.828 193.933 292.093 208.248 291.411" stroke="#B7DDFF" stroke-width="4" stroke-miterlimit="10"/>
<path d="M237.389 355.999L235.63 332.652" stroke="#B7DDFF" stroke-width="4" stroke-miterlimit="10"/>
<path d="M37.8323 113.497C37.8323 113.497 -6.01227 224.444 29.7137 263.04C65.4397 301.636 27.6074 415.474 23.1766 416.155" stroke="#C84348" stroke-width="4" stroke-miterlimit="10"/>
<path d="M193.081 25.392C193.081 25.392 214.894 108.896 273.858 85.0375C332.822 61.1793 313.735 33.5719 284.765 40.0477C255.794 46.5235 247.614 175.017 310.327 161.043C373.04 147.069 363.667 100.518 322.004 112.887C280.341 125.256 283.061 188.65 328.732 194.444" stroke="#C84348" stroke-width="4" stroke-miterlimit="10"/>
<path d="M211.145 170.586C214.91 170.586 217.962 167.534 217.962 163.77C217.962 160.005 214.91 156.953 211.145 156.953C207.381 156.953 204.329 160.005 204.329 163.77C204.329 167.534 207.381 170.586 211.145 170.586Z" fill="#26274A"/>
<path d="M14.9968 142.808C17.8203 142.808 20.1092 140.52 20.1092 137.696C20.1092 134.872 17.8203 132.583 14.9968 132.583C12.1732 132.583 9.88428 134.872 9.88428 137.696C9.88428 140.52 12.1732 142.808 14.9968 142.808Z" fill="#26274A"/>
<path d="M28.9708 97.8187C31.0414 97.8187 32.72 96.1402 32.72 94.0696C32.72 91.999 31.0414 90.3204 28.9708 90.3204C26.9002 90.3204 25.2217 91.999 25.2217 94.0696C25.2217 96.1402 26.9002 97.8187 28.9708 97.8187Z" fill="#26274A"/>
<path d="M14.9964 344.581C20.267 344.581 24.5397 340.308 24.5397 335.037C24.5397 329.767 20.267 325.494 14.9964 325.494C9.7258 325.494 5.45312 329.767 5.45312 335.037C5.45312 340.308 9.7258 344.581 14.9964 344.581Z" fill="#26274A"/>
<path d="M324.813 454.669C327.636 454.669 329.925 452.38 329.925 449.557C329.925 446.733 327.636 444.444 324.813 444.444C321.989 444.444 319.7 446.733 319.7 449.557C319.7 452.38 321.989 454.669 324.813 454.669Z" fill="#26274A"/>
<path d="M357.873 359.918C359.756 359.918 361.281 358.392 361.281 356.51C361.281 354.628 359.756 353.102 357.873 353.102C355.991 353.102 354.465 354.628 354.465 356.51C354.465 358.392 355.991 359.918 357.873 359.918Z" fill="#26274A"/>
<path d="M82.1406 83.8446L116.565 9.54333L169.053 88.9571L82.1406 83.8446Z" fill="#C84348"/>
<path d="M138.378 384.117H14.9966V414.792H138.378V384.117Z" fill="#26274A"/>
<path d="M134.288 382.413H10.9067V413.088H134.288V382.413Z" fill="#C84348"/>
<path d="M226.653 115.201C226.653 115.201 187.458 92.0246 188.48 89.6387C189.503 87.2529 208.93 65.4397 208.93 65.4397L237.451 85.1875L222.222 97.4779L240.968 106.339L226.653 115.201Z" stroke="white" stroke-width="4" stroke-miterlimit="10"/>
<path d="M70.3817 96.2849C70.3817 92.5358 59.4751 43.7969 59.4751 43.7969L115.712 58.7935L70.3817 96.2849Z" stroke="white" stroke-width="4" stroke-miterlimit="10"/>
<path d="M324.301 383.947L292.945 333.845L328.732 318.507L337.253 371.677L324.301 383.947Z" stroke="white" stroke-width="4" stroke-miterlimit="10"/>
<path d="M250 139.23L200.239 220.007L218.644 229.55L247.614 193.081L236.708 188.65L259.884 170.586L287.151 172.631L298.739 123.892L250 139.23Z" stroke="white" stroke-width="4" stroke-miterlimit="10"/>
</svg>
