<svg width="395" height="300" viewBox="0 0 395 300" fill="none" xmlns="http://www.w3.org/2000/svg">
<g clip-path="url(#clip0_108_456)">
<path d="M249.2 280.81L255.754 273.556L255.075 282.024L261.233 284.693L263.665 276.676L265.145 271.792L266.644 266.849L254.678 258.378L251.87 261.267L246.82 266.462L229.933 257.458L249.2 280.81Z" fill="#D6802B"/>
<path d="M251.694 261.13L246.82 266.462L263.665 276.676L265.145 271.792L251.869 261.267L251.694 261.13Z" fill="#A85D23"/>
<path d="M353.043 146.733L309.47 216.642L274.842 277.386L244.479 259.663C244.479 259.663 278.409 203.341 277.612 204.67C276.815 206 307.93 153.44 307.93 153.44L353.043 146.733Z" fill="#030303"/>
<path d="M264.302 121.52L264.564 121.503L264.48 121.44C264.418 121.464 264.36 121.49 264.302 121.52Z" fill="#D6802B"/>
<path d="M242.508 125.319C242.528 125.631 242.61 125.936 242.748 126.217C242.886 126.497 243.077 126.748 243.312 126.954C243.547 127.16 243.82 127.318 244.116 127.419C244.412 127.52 244.725 127.562 245.037 127.541L259.138 126.625C259.035 126.836 258.938 127.051 258.85 127.27L244.748 128.187C244.212 128.222 243.703 128.437 243.304 128.798C242.906 129.159 242.641 129.644 242.554 130.175C242.466 130.705 242.561 131.249 242.822 131.719C243.083 132.189 243.496 132.557 243.993 132.762C244.33 132.9 244.693 132.96 245.056 132.938L258.051 132.094C258.051 132.22 258.068 132.349 258.081 132.478C258.109 132.775 258.149 133.065 258.201 133.354L245.845 134.161C245.533 134.181 245.229 134.263 244.948 134.401C244.668 134.539 244.417 134.731 244.211 134.966C244.005 135.201 243.847 135.474 243.746 135.77C243.645 136.066 243.604 136.379 243.624 136.691C243.644 137.003 243.726 137.308 243.864 137.588C244.002 137.869 244.194 138.119 244.429 138.325C244.664 138.532 244.937 138.69 245.233 138.79C245.529 138.891 245.842 138.933 246.154 138.912L260.208 137.999C260.283 138.096 260.357 138.194 260.434 138.289L248.093 139.096C247.782 139.117 247.477 139.198 247.196 139.336C246.916 139.474 246.665 139.666 246.459 139.901C246.253 140.136 246.095 140.409 245.994 140.705C245.893 141.001 245.852 141.314 245.872 141.626C245.892 141.938 245.974 142.243 246.112 142.523C246.25 142.804 246.442 143.054 246.677 143.261C246.912 143.467 247.185 143.625 247.481 143.725C247.777 143.826 248.09 143.868 248.402 143.847L276.706 142.009L276.687 141.715L284.366 140.98L282.268 119.156L270.81 120.255L260.521 112.531C260.314 112.376 260.079 112.263 259.828 112.198C259.577 112.134 259.316 112.12 259.059 112.156C258.803 112.193 258.556 112.28 258.333 112.411C258.11 112.543 257.916 112.718 257.76 112.925L257.276 113.571C257.121 113.778 257.007 114.013 256.943 114.264C256.878 114.515 256.864 114.776 256.9 115.032C256.937 115.289 257.023 115.536 257.155 115.758C257.287 115.981 257.461 116.176 257.668 116.332L264.48 121.443L264.564 121.506L264.303 121.523L244.729 122.795C244.1 122.836 243.513 123.125 243.097 123.598C242.68 124.071 242.469 124.69 242.508 125.319Z" fill="#D6802B"/>
<path d="M317.796 94.8906L312.557 114.163L275.598 118.249L276.864 143.941L334.805 136.671L339.789 103.725L317.796 94.8906Z" fill="#395DA3"/>
<path d="M275.644 119.781L272.727 142.235L276.976 142.083L275.644 119.781Z" fill="#A85D23"/>
<path d="M260.346 123.12C260.346 123.12 254.913 131.361 261.251 141.033" stroke="black" stroke-width="2.31" stroke-miterlimit="10"/>
<path d="M275.46 125.508C275.46 125.508 267.946 128.716 263.697 123.36" stroke="black" stroke-width="2.31" stroke-miterlimit="10"/>
<path d="M311.088 114.368L308.789 140.027L276.871 143.846L276.548 135.32C276.548 135.32 309.478 125.182 311.088 114.368Z" fill="#2B4271"/>
<path d="M194.674 219.682H290.105C294.251 219.682 297.611 216.322 297.611 212.176V51.3387C297.611 47.1933 294.251 43.8329 290.105 43.8329H194.674C190.529 43.8329 187.168 47.1933 187.168 51.3387V212.176C187.168 216.322 190.529 219.682 194.674 219.682Z" fill="#037EEE"/>
<path d="M204.502 108.245L280.276 108.245C284.421 108.245 287.782 104.885 287.782 100.739V64.7414C287.782 60.596 284.421 57.2356 280.276 57.2356L204.502 57.2356C200.357 57.2356 196.997 60.596 196.997 64.7414V100.739C196.997 104.885 200.357 108.245 204.502 108.245Z" fill="#03EB97"/>
<path d="M242.39 123.505C245.795 123.505 248.555 120.745 248.555 117.34C248.555 113.936 245.795 111.176 242.39 111.176C238.985 111.176 236.225 113.936 236.225 117.34C236.225 120.745 238.985 123.505 242.39 123.505Z" fill="#395DA3"/>
<path d="M270.908 120.021H287.796V114.66H270.908V120.021Z" fill="#395DA3"/>
<path d="M251.474 120.021H268.363V114.66H251.474V120.021Z" fill="#395DA3"/>
<path d="M216.322 120.021H233.211V114.66H216.322V120.021Z" fill="#395DA3"/>
<path d="M196.889 120.021H213.777V114.66H196.889V120.021Z" fill="#395DA3"/>
<path d="M259.885 140.144H288.14V126.396H259.885V140.144Z" fill="#03EB97"/>
<path d="M228.45 140.144H256.705V126.396H228.45V140.144Z" fill="#03EB97"/>
<path d="M196.997 140.144H225.251V126.396H196.997V140.144Z" fill="#03EB97"/>
<path d="M259.885 156.529H288.14V142.781H259.885V156.529Z" fill="#03EB97"/>
<path d="M228.45 156.529H256.705V142.781H228.45V156.529Z" fill="#03EB97"/>
<path d="M196.997 156.529H225.251V142.781H196.997V156.529Z" fill="#03EB97"/>
<path d="M259.885 172.917H288.14V159.169H259.885V172.917Z" fill="#03EB97"/>
<path d="M228.45 172.917H256.705V159.169H228.45V172.917Z" fill="#03EB97"/>
<path d="M196.997 172.917H225.251V159.169H196.997V172.917Z" fill="#03EB97"/>
<path d="M259.885 189.302H288.14V175.554H259.885V189.302Z" fill="#03EB97"/>
<path d="M228.45 189.302H256.705V175.554H228.45V189.302Z" fill="#03EB97"/>
<path d="M196.997 189.302H225.251V175.554H196.997V189.302Z" fill="#03EB97"/>
<path d="M259.885 205.853H288.14V192.105H259.885V205.853Z" fill="#D6802B"/>
<path d="M228.45 205.853H256.705V192.105H228.45V205.853Z" fill="#03EB97"/>
<path d="M196.997 205.853H225.251V192.105H196.997V205.853Z" fill="#030303"/>
<path d="M272.208 49.7297L212.572 49.7297V14.8552C212.572 12.6343 213.454 10.5043 215.024 8.93384C216.595 7.3634 218.725 6.48113 220.946 6.48113L263.834 6.48113C264.934 6.48113 266.023 6.69774 267.039 7.11857C268.055 7.53941 268.978 8.15624 269.756 8.93384C270.533 9.71145 271.15 10.6346 271.571 11.6506C271.992 12.6666 272.208 13.7555 272.208 14.8552V49.7297Z" fill="#03EB97"/>
<path d="M218.98 17.2032L265.802 17.2032V15.2376L218.98 15.2376V17.2032Z" fill="#030303"/>
<path d="M218.98 22.5659L265.802 22.5659V20.6003L218.98 20.6003V22.5659Z" fill="#030303"/>
<path d="M218.98 28.1046L265.802 28.1046V26.139L218.98 26.139V28.1046Z" fill="#030303"/>
<path d="M218.98 33.6464L265.802 33.6464V31.6807L218.98 31.6807V33.6464Z" fill="#030303"/>
<path d="M218.98 39.1866L265.802 39.1866V37.221L218.98 37.221V39.1866Z" fill="#030303"/>
<path d="M32.8265 265.439L24.1958 281.967L30.4606 284.372L35.904 277.85L35.5054 287.617L65.6111 284.436L47.2508 279.041L47.2992 267.767L32.8265 265.439Z" fill="#D6802B"/>
<path d="M29.8765 271.095L47.5042 271.821L47.2509 279.041L28.1514 274.287L29.8765 271.095Z" fill="#A85D23"/>
<path d="M106.16 124.015L105.895 123.993L105.982 123.93L106.16 124.015Z" fill="#D6802B"/>
<path d="M125.322 130.346L111.239 129.204C111.339 129.417 111.432 129.633 111.518 129.849L125.601 130.992C126.213 131.042 126.782 131.327 127.189 131.787C127.595 132.247 127.809 132.846 127.784 133.459C127.76 134.073 127.499 134.653 127.057 135.079C126.615 135.504 126.025 135.743 125.411 135.744C125.346 135.744 125.282 135.744 125.216 135.744L112.237 134.691C112.228 134.818 112.217 134.947 112.202 135.075C112.168 135.37 112.125 135.662 112.068 135.949L124.407 136.951C125.001 137.024 125.546 137.317 125.933 137.772C126.321 138.228 126.522 138.812 126.498 139.41C126.474 140.008 126.226 140.574 125.804 140.997C125.381 141.42 124.814 141.669 124.217 141.693C124.152 141.693 124.088 141.693 124.022 141.693L109.981 140.553C109.907 140.652 109.83 140.747 109.751 140.841L122.08 141.841C122.692 141.892 123.261 142.177 123.667 142.637C124.074 143.096 124.287 143.696 124.263 144.309C124.238 144.922 123.978 145.503 123.535 145.928C123.093 146.354 122.504 146.593 121.89 146.594C121.825 146.594 121.761 146.594 121.694 146.586L93.4236 144.289L93.4478 143.997L85.7822 143.145L88.2272 121.359L99.6643 122.642L110.077 115.084C110.5 114.777 111.028 114.651 111.545 114.734C112.061 114.816 112.524 115.1 112.831 115.523L113.316 116.185C113.622 116.609 113.747 117.137 113.664 117.653C113.582 118.169 113.297 118.632 112.873 118.938L105.982 123.941L105.895 124.004L106.16 124.026L125.716 125.601C126.328 125.652 126.897 125.937 127.303 126.397C127.71 126.857 127.923 127.456 127.899 128.069C127.874 128.683 127.614 129.263 127.171 129.689C126.729 130.114 126.14 130.353 125.526 130.354C125.453 130.354 125.393 130.351 125.322 130.346Z" fill="#D6802B"/>
<path d="M110.088 125.677C110.088 125.677 115.388 134.006 108.894 143.579" stroke="black" stroke-width="2.31" stroke-miterlimit="10"/>
<path d="M94.9358 127.822C94.9358 127.822 102.398 131.152 106.733 125.863" stroke="black" stroke-width="2.31" stroke-miterlimit="10"/>
<path d="M54.8664 96.0349L58.0279 115.88L94.9165 120.562L93.2365 146.231L35.4184 138.026L27.9109 99.432L54.8664 96.0349Z" fill="#C84348"/>
<path d="M63.5649 116.7L94.2823 138.213L93.2365 146.231L65.8937 142.133L63.5649 116.7Z" fill="#962B35"/>
<path d="M93.3544 137.721L50.6351 134.326L28.4016 102.469L35.4185 138.026L93.2366 146.231L93.7175 138.449L93.3544 137.721Z" fill="#962B35"/>
<path d="M90.1017 118.497L87.6487 146.201L97.3276 147.058L99.7806 119.354L90.1017 118.497Z" fill="#395DA3"/>
<path d="M97.3227 147.048C97.3227 147.048 89.2229 130.312 89.7281 122.634L87.5881 146.439L97.3227 147.048Z" fill="#2B4271"/>
<path d="M48.2997 70.1332C52.512 70.1332 55.9266 66.7185 55.9266 62.5063C55.9266 58.2941 52.512 54.8794 48.2997 54.8794C44.0875 54.8794 40.6729 58.2941 40.6729 62.5063C40.6729 66.7185 44.0875 70.1332 48.2997 70.1332Z" fill="#D6802B"/>
<path d="M39.6289 64.8415C41.0577 64.8415 42.2159 63.6833 42.2159 62.2545C42.2159 60.8258 41.0577 59.6676 39.6289 59.6676C38.2002 59.6676 37.042 60.8258 37.042 62.2545C37.042 63.6833 38.2002 64.8415 39.6289 64.8415Z" fill="#D6802B"/>
<path d="M59.6015 73.8853L35.3911 72.9315L17.928 134.792L65.8938 142.133L59.6015 73.8853Z" fill="#C84348"/>
<path d="M18.3088 134.172L23.5699 271.432L50.2478 271.813L49.42 140.179L18.3088 134.172Z" fill="#030303"/>
<path d="M43.3195 255.173L27.8188 265.537L32.1632 270.653L40.0677 267.541L35.0326 275.92L62.9758 287.569L49.452 274.029L54.9019 264.16L43.3195 255.173Z" fill="#D6802B"/>
<path d="M37.9586 258.699L53.1381 267.816L49.4522 274.029L35.0247 260.741L37.9586 258.699Z" fill="#A85D23"/>
<path d="M20.7795 135.418L62.7516 202.892L29.8121 254.695L54.5163 271.431C54.5163 271.431 97.0194 211.13 97.8166 212.459C98.6138 213.787 65.8921 142.133 65.8921 142.133L20.7795 135.418Z" fill="#030303"/>
<path d="M38.0731 258.824L28.2175 250.974L49.7345 223.347" stroke="white" stroke-width="2.31" stroke-miterlimit="10"/>
<path d="M27.1558 146.576L62.7517 202.892" stroke="white" stroke-width="2.31" stroke-miterlimit="10"/>
<path d="M35.0327 275.92L56.6417 285.242L43.0937 286.836L35.0327 275.92Z" fill="#A85D23"/>
<path d="M38.7766 59.7434C38.7766 59.7434 39.1978 60.5067 40.6648 60.6068C40.6648 60.6068 40.2387 61.5751 41.036 63.297C41.036 63.297 40.271 64.1265 40.271 64.7914C40.271 64.7914 39.2753 64.9528 38.7766 64.6575C38.7766 64.6575 40.6034 62.3675 38.7766 59.7434Z" fill="#A85D23"/>
<path d="M64.8416 76.5755L64.8335 76.6014V76.5691L64.8416 76.5755Z" fill="#D6802B"/>
<path d="M69.8637 96.4077L51.1919 97.2308L50.7658 87.5785L42.8291 79.6111L42.8065 79.5869C42.6364 79.4114 42.5074 79.2003 42.4288 78.9688C42.3464 78.723 42.3218 78.4615 42.3567 78.2045C42.3917 77.9476 42.4854 77.7022 42.6306 77.4873C42.6833 77.4097 42.7427 77.3368 42.8081 77.2695L42.8355 77.2404L43.1357 76.9419L43.3294 76.7482C43.6447 76.4332 44.0722 76.2562 44.5179 76.2562C44.9637 76.2562 45.3912 76.4332 45.7065 76.7482L50.8949 81.9544L50.9207 82.2965C50.9417 82.2126 50.9627 82.1351 50.9869 82.048L50.8949 81.9544L49.6184 64.9351C49.5806 64.4307 49.7447 63.932 50.0745 63.5485C50.4044 63.1651 50.8731 62.9284 51.3774 62.8904L51.6211 62.8726C52.1255 62.8348 52.6243 62.9989 53.0077 63.3288C53.3912 63.6587 53.6279 64.1273 53.6658 64.6317L54.5889 76.937C54.7697 76.8079 54.9553 76.6869 55.1457 76.5723L54.7761 71.6453C54.759 71.4189 54.7866 71.1912 54.8574 70.9755C54.9283 70.7597 55.041 70.56 55.1891 70.3878C55.3371 70.2155 55.5177 70.0742 55.7204 69.9718C55.9232 69.8694 56.1441 69.808 56.3706 69.7911L56.9677 69.7459C57.424 69.7107 57.8756 69.8576 58.2237 70.1547C58.5719 70.4517 58.7881 70.8745 58.8252 71.3306L59.1189 75.2522H59.1286C59.2771 75.2377 59.4255 75.228 59.5756 75.2216C59.7257 75.2151 59.8548 75.2119 59.9952 75.2119H60.1421L59.9371 72.4684C59.9038 72.0178 60.0505 71.5724 60.3452 71.2299C60.6399 70.8874 61.0585 70.6758 61.509 70.6416L62.1545 70.5931C62.3776 70.5762 62.6019 70.6034 62.8145 70.6733C63.027 70.7432 63.2237 70.8543 63.3933 71.0003C63.5628 71.1463 63.7019 71.3244 63.8025 71.5242C63.9032 71.7241 63.9634 71.9418 63.9797 72.165L64.2863 76.256C64.4703 76.3496 64.6511 76.4529 64.827 76.5594V76.5917L64.835 76.5659H64.8254L64.7221 72.9445C64.7152 72.7268 64.7513 72.5099 64.8283 72.3062C64.9052 72.1024 65.0216 71.9159 65.1708 71.7572C65.3199 71.5984 65.4988 71.4707 65.6974 71.3811C65.8959 71.2916 66.1101 71.2421 66.3278 71.2354L67.0718 71.2128C67.2899 71.2064 67.5071 71.2431 67.7109 71.3207C67.9148 71.3984 68.1013 71.5156 68.2598 71.6655C68.4183 71.8155 68.5456 71.9952 68.6345 72.1945C68.7233 72.3937 68.772 72.6086 68.7776 72.8267L69.0665 82.3482C69.2107 82.9408 69.2966 83.5462 69.3231 84.1556L69.8637 96.4077Z" fill="#D6802B"/>
<path d="M64.8416 76.5755L64.8335 76.6014V76.5691L64.8416 76.5755Z" fill="#D6802B"/>
<path d="M50.8916 81.9543L50.9836 82.0479C50.9594 82.1303 50.9384 82.2093 50.9174 82.2965L50.8916 81.9543Z" fill="#D6802B"/>
<path d="M70.798 87.551H48.019V132.351H70.798V87.551Z" fill="#C84348"/>
<path d="M43.8779 94.1096L50.6075 103.607L50.7802 88.0756C50.7802 88.0756 48.019 98.078 43.8779 94.1096Z" fill="#962B35"/>
<path d="M50.9836 82.0479C50.9594 82.1303 50.9384 82.2093 50.9174 82.2965L50.8916 81.9543L50.9836 82.0479Z" fill="#D6802B"/>
<path d="M50.7964 87.6107H50.7222L50.7238 87.5365L50.7964 87.6107Z" fill="#A85D23"/>
<path d="M69.4795 87.4849L50.7963 87.5526L50.7237 87.48L42.8289 79.561L42.8063 79.5368C42.6487 79.352 42.5213 79.1434 42.4287 78.9187C42.3243 78.6863 42.2842 78.4301 42.3126 78.1769C42.341 77.9237 42.4368 77.6828 42.5901 77.4792L42.624 77.4373L42.8015 77.2194L43.0887 76.866L43.1291 76.8918L50.8754 81.9285L69.4795 87.4849Z" fill="#A85D23"/>
<path d="M50.8609 87.6107V87.6737L50.7964 87.6107H50.8609Z" fill="#A85D23"/>
<path d="M55.2958 78.3055L54.5906 76.9321C54.7713 76.803 54.9569 76.682 55.1473 76.5674L55.2958 78.3055Z" fill="#A85D23"/>
<path d="M60.1373 75.2183L59.8888 77.1791L59.1287 75.257C59.2771 75.2425 59.4256 75.2328 59.5757 75.2264C59.7258 75.2199 59.8549 75.2167 59.9953 75.2167L60.1373 75.2183Z" fill="#A85D23"/>
<path d="M64.8415 76.5771L64.8334 76.603L64.4138 77.894L64.2524 78.3685L64.2799 76.2705C64.4638 76.3641 64.6446 76.4674 64.8205 76.5739L64.8415 76.5771Z" fill="#A85D23"/>
<path d="M84.3815 74.6308C90.7755 74.6308 95.959 69.4474 95.959 63.0533C95.959 56.6593 90.7755 51.4758 84.3815 51.4758C77.9874 51.4758 72.804 56.6593 72.804 63.0533C72.804 69.4474 77.9874 74.6308 84.3815 74.6308Z" fill="#C84348"/>
<path d="M89.2714 266.316L64.012 282.806L65.7662 268.421L71.0288 271.579C71.0288 271.579 70.3268 260.352 71.379 260.702C72.4312 261.052 79.4481 267.719 79.4481 267.719L82.6063 260.352C82.6063 260.352 88.9212 266.667 89.2714 266.316Z" fill="#D6802B"/>
<path d="M86.5536 237.692L117.197 253.767L99.9919 278.255L88.5628 270.219L99.2382 255.275L84.5444 252.386L86.5536 237.692Z" fill="#395DA3"/>
<path d="M137.198 210.282L103.465 210.377L105.514 201.346L134.386 203.153L137.198 210.282Z" fill="#D6802B"/>
<path d="M112.362 221.065L127.709 246.239L98.8557 227.937L112.362 221.065Z" fill="#395DA3"/>
<path d="M81.8784 107.369L106.859 87.5478L83.2534 86.381L81.8784 107.369Z" fill="#D6802B"/>
<path d="M134.197 230.107C137.843 230.107 140.799 227.151 140.799 223.505C140.799 219.859 137.843 216.903 134.197 216.903C130.551 216.903 127.595 219.859 127.595 223.505C127.595 227.151 130.551 230.107 134.197 230.107Z" fill="#C84348"/>
<path d="M60.8924 53.0041C60.893 54.3205 60.4984 55.6068 59.7597 56.6964C59.021 57.786 57.9722 58.6288 56.7491 59.1156C55.526 59.6024 54.1849 59.7108 52.8994 59.4268C51.614 59.1429 50.4434 58.4795 49.5393 57.5228C49.1101 58.0288 48.5662 58.4249 47.9529 58.6783C48.4314 59.2463 48.75 59.9315 48.8761 60.6634C49.0023 61.3953 48.9313 62.1476 48.6706 62.8431C48.4099 63.5385 47.9688 64.152 47.3925 64.6206C46.8163 65.0892 46.1257 65.396 45.3918 65.5095C45.3747 65.6769 45.3417 65.8422 45.2933 66.0034C45.1892 66.3435 45.0166 66.6588 44.786 66.9297C44.5555 67.2007 44.2719 67.4215 43.9528 67.5787C43.6336 67.7359 43.2857 67.8261 42.9304 67.8438C42.5751 67.8614 42.2199 67.8062 41.8868 67.6813C41.5536 67.5565 41.2495 67.3649 40.9933 67.1181C40.737 66.8713 40.534 66.5747 40.3967 66.2465C40.2594 65.9183 40.1908 65.5655 40.195 65.2098C40.1992 64.8541 40.2762 64.503 40.4212 64.1781C40.5704 63.8539 40.7833 63.563 41.0474 63.3228C40.7307 62.7263 40.5645 62.0615 40.5632 61.3862C40.5632 61.1302 40.5865 60.8747 40.6326 60.6229C40.0427 60.6172 39.4721 60.4117 39.0141 60.0398C38.556 59.668 38.2376 59.1518 38.1108 58.5757C37.984 57.9995 38.0563 57.3973 38.3159 56.8675C38.5755 56.3378 39.007 55.9116 39.5401 55.6588C39.6695 55.0809 39.992 54.5642 40.4543 54.1941C40.9166 53.8239 41.4912 53.6221 42.0834 53.6222C42.169 53.6222 42.2529 53.6222 42.3368 53.6335C42.5053 53.0611 42.7943 52.5314 43.1844 52.0799C43.5745 51.6285 44.0567 51.2657 44.5985 51.0159C45.1404 50.7662 45.7294 50.6352 46.3261 50.6319C46.9227 50.6285 47.5132 50.7528 48.0578 50.9965C48.539 49.5057 49.5366 48.2356 50.8709 47.4149C52.2053 46.5942 53.7888 46.2768 55.3364 46.5198C56.884 46.7629 58.294 47.5504 59.3126 48.7406C60.3312 49.9308 60.8914 51.4456 60.8924 53.0121V53.0041Z" fill="#395DA3"/>
<path d="M49.4036 55.3539C49.4036 55.3539 52.7926 60.1356 57.605 58.6751C57.605 58.6751 53.9529 61.4299 49.502 57.5454C49.502 57.5519 49.005 56.7224 49.4036 55.3539Z" fill="#2B4271"/>
<path d="M29.1536 95.5071C28.9761 96.5916 38.7381 134.618 66.4328 142.188L17.6584 134.887L29.1536 95.5071Z" fill="#962B35"/>
<path d="M45.2934 66.005C45.1893 66.3452 45.0167 66.6604 44.7861 66.9314C44.5556 67.2023 44.272 67.4232 43.9529 67.5804C43.6337 67.7376 43.2858 67.8278 42.9305 67.8454C42.5752 67.8631 42.22 67.8078 41.8868 67.683C41.5537 67.5582 41.2496 67.3665 40.9934 67.1197C40.7371 66.873 40.5341 66.5764 40.3968 66.2482C40.2595 65.92 40.1908 65.5672 40.1951 65.2114C40.1993 64.8557 40.2763 64.5046 40.4213 64.1798C40.5296 64.0258 40.6499 63.8806 40.7812 63.7457L40.736 63.6617C40.8296 63.5393 40.9345 63.4259 41.0491 63.3228C40.7324 62.7264 40.5663 62.0616 40.5649 61.3863C40.565 61.1302 40.5882 60.8748 40.6343 60.6229C40.0444 60.6172 39.4738 60.4117 39.0158 60.0399C38.5577 59.668 38.2393 59.1519 38.1125 58.5757C37.9857 57.9995 38.058 57.3974 38.3176 56.8676C38.5772 56.3378 39.0087 55.9117 39.5418 55.6588C39.6712 55.0809 39.9937 54.5643 40.456 54.1941C40.9183 53.8239 41.4929 53.6222 42.0852 53.6222C42.1707 53.6222 42.2546 53.6222 42.3385 53.6335C42.5142 53.0412 42.8188 52.4951 43.2306 52.0346C43.6424 51.574 44.1511 51.2104 44.7202 50.9699C45.2892 50.7293 45.9045 50.6178 46.5218 50.6433C47.1391 50.6689 47.743 50.8308 48.2903 51.1176C48.2031 52.0213 48.2499 53.9369 49.7346 56.0445C49.6346 55.9445 45.5855 51.918 42.7 54.0725C42.7 54.0725 39.6128 55.3877 40.8474 57.1581C40.8474 57.1581 40.3535 60.4083 42.6225 60.6149C42.6225 60.6003 41.9754 64.8479 45.2934 66.005Z" fill="#2B4271"/>
<path d="M193.033 92.2615L139.88 69.1057C136.53 67.6463 132.631 69.179 131.171 72.5292L92.5432 161.198C91.0837 164.548 92.6164 168.447 95.9666 169.907L149.12 193.062C152.47 194.522 156.369 192.989 157.828 189.639L196.456 100.97C197.916 97.62 196.383 93.721 193.033 92.2615Z" fill="#03EB97"/>
<path d="M186.741 99.662L185.707 99.2114C183.983 98.4603 181.976 99.2491 181.225 100.973L147.458 178.485C146.706 180.209 147.495 182.216 149.219 182.967L150.254 183.417C151.978 184.168 153.984 183.38 154.735 181.655L188.503 104.144C189.254 102.42 188.465 100.413 186.741 99.662Z" fill="#030303"/>
<path d="M178.052 95.1813L167.891 90.7546C167.251 90.4755 166.505 90.7686 166.226 91.4092L158.841 108.36C158.562 109.001 158.855 109.746 159.496 110.025L169.657 114.452C170.298 114.731 171.043 114.438 171.323 113.797L178.707 96.8465C178.986 96.2059 178.693 95.4604 178.052 95.1813Z" fill="#D6802B"/>
<path d="M337.742 299.621L337.344 289.854L342.787 296.375L349.052 293.971L345.352 286.884L343.576 283.483L340.421 277.44L325.949 279.771L325.997 291.045L307.637 296.438L337.742 299.621Z" fill="#D6802B"/>
<path d="M344.036 283.483L346.407 288.545H326.16L326.045 283.597L344.036 283.483Z" fill="#A85D23"/>
<path d="M354.939 146.176L349.678 283.436L323.002 283.817L323.828 152.184L354.939 146.176Z" fill="#030303"/>
<path d="M307.354 154.135L308.739 153.924L355.32 146.794L344.322 107.835L337.962 85.3095L337.857 84.9351L315.095 85.8323L313.646 85.8904L307.354 154.135Z" fill="#395DA3"/>
<path d="M329.77 168.14L329.838 167.888L329.749 167.948C329.754 168.011 329.762 168.076 329.77 168.14Z" fill="#D6802B"/>
<path d="M329.439 85.261L311.721 107.351L313.448 85.8952L329.439 85.261Z" fill="#2B4271"/>
<path d="M312.918 75.1118C313.072 76.8975 313.903 78.5567 315.241 79.7491C316.579 80.9416 318.323 81.577 320.114 81.5251C320.247 81.5251 320.379 81.5138 320.513 81.5025C321.92 81.3822 323.258 80.8404 324.352 79.9479C325.446 79.0554 326.245 77.8537 326.645 76.4997C326.646 76.4965 326.646 76.4932 326.645 76.49C326.725 76.2217 326.788 75.9491 326.836 75.6734C326.918 75.1798 326.947 74.6788 326.923 74.179C326.923 74.087 326.913 73.995 326.905 73.9031C326.85 73.2457 326.701 72.5997 326.463 71.9842C326.449 71.9455 326.434 71.9068 326.416 71.868C326.399 71.8293 326.389 71.797 326.374 71.7631C326.305 71.6017 326.229 71.4404 326.147 71.279C325.403 69.831 324.178 68.6867 322.684 68.042C321.189 67.3974 319.516 67.2924 317.952 67.7451C316.389 68.1978 315.031 69.1801 314.112 70.5237C313.192 71.8673 312.769 73.4887 312.913 75.1102L312.918 75.1118Z" fill="#D6802B"/>
<path d="M324.948 74.4146C324.988 74.8815 325.166 75.3262 325.457 75.6928C325.749 76.0594 326.143 76.3317 326.589 76.4755L326.642 76.4916C326.756 76.526 326.873 76.5514 326.991 76.5674C327.167 76.592 327.345 76.5963 327.522 76.5804C328.109 76.5311 328.657 76.2658 329.06 75.8359C329.463 75.406 329.692 74.842 329.703 74.2529C329.714 73.6639 329.506 73.0917 329.12 72.647C328.733 72.2023 328.196 71.9167 327.611 71.8454C327.445 71.8244 327.278 71.8211 327.112 71.8357C326.8 71.8627 326.497 71.951 326.219 72.0954C325.941 72.2398 325.694 72.4376 325.493 72.6774C325.292 72.9173 325.14 73.1944 325.046 73.4931C324.952 73.7917 324.917 74.1059 324.945 74.4178L324.948 74.4146Z" fill="#D6802B"/>
<path d="M325.243 71.676L325.387 71.7873C325.557 71.9594 325.695 72.1612 325.793 72.3828C325.885 72.5629 325.967 72.7477 326.039 72.9364L326.589 76.4755C326.605 76.4857 326.622 76.4943 326.639 76.5013C326.752 76.5419 326.871 76.5642 326.991 76.5675H327.073C326.936 76.287 326.854 75.983 326.831 75.6718C326.793 75.172 326.823 74.6694 326.918 74.1774C327.072 73.3782 327.304 72.5961 327.611 71.8422C327.445 71.8212 327.278 71.8179 327.112 71.8325C326.891 71.852 326.674 71.9026 326.466 71.9826C326.452 71.9439 326.437 71.9051 326.42 71.8664L326.371 71.8842L326.41 71.8632C326.41 71.8632 326.399 71.8245 326.378 71.7615C326.323 71.5909 326.247 71.4282 326.15 71.2774C326.115 71.2252 326.072 71.178 326.024 71.137C325.782 71.3416 325.52 71.5221 325.243 71.676ZM326.56 75.3635C326.591 75.6863 326.612 76.0381 326.62 76.4158L326.56 75.3635Z" fill="#A85D23"/>
<path d="M312.444 67.4672C312.518 68.3289 312.836 69.1518 313.36 69.8398C313.884 70.5279 314.593 71.0528 315.404 71.3532C316.215 71.6537 317.094 71.7173 317.94 71.5368C318.786 71.3562 319.563 70.9388 320.181 70.3333C320.219 70.3995 320.258 70.4656 320.3 70.5302C320.751 71.2352 321.425 71.7687 322.215 72.0456C323.005 72.3224 323.865 72.3264 324.657 72.0572C325.449 71.7879 326.129 71.2608 326.586 70.5601C327.044 69.8594 327.253 69.0256 327.181 68.1918C327.17 68.0659 327.154 67.9416 327.131 67.8206L327.117 67.7544C327.107 67.7076 327.096 67.6608 327.085 67.614C328.101 67.2151 328.968 66.5099 329.566 65.5961C330.163 64.6823 330.462 63.6052 330.42 62.5141C330.378 61.423 329.997 60.372 329.331 59.5069C328.665 58.6418 327.746 58.0053 326.702 57.6858C326.058 57.4859 325.381 57.4136 324.709 57.4728C324.02 57.5321 323.35 57.7265 322.737 58.0448C322.123 58.3632 321.579 58.7992 321.134 59.328C320.689 59.8569 320.352 60.4682 320.144 61.127C319.935 61.7859 319.858 62.4794 319.918 63.168C319.93 63.3293 319.951 63.481 319.979 63.6344C319.294 63.0386 318.446 62.661 317.545 62.5501C316.644 62.4391 315.73 62.5998 314.92 63.0116C314.111 63.4234 313.443 64.0674 313.002 64.8613C312.561 65.6551 312.367 66.5625 312.446 67.4672H312.444Z" fill="#395DA3"/>
<path d="M326.41 57.6132C326.612 58.3846 328.062 64.2556 325.956 65.7419C325.649 65.9553 325.29 66.0813 324.917 66.1067C325.026 66.7262 325.023 67.3605 324.906 67.9787C324.631 69.3537 323.615 70.9207 320.298 70.5366C320.749 71.2416 321.423 71.7751 322.213 72.052C323.003 72.3288 323.863 72.3328 324.655 72.0636C325.448 71.7943 326.127 71.2672 326.584 70.5665C327.042 69.8658 327.252 69.032 327.18 68.1982C327.168 68.0723 327.152 67.948 327.13 67.827L327.083 67.7737L327.115 67.7608C327.105 67.714 327.094 67.6672 327.083 67.6204C328.099 67.2215 328.966 66.5163 329.564 65.6025C330.162 64.6887 330.46 63.6115 330.418 62.5205C330.376 61.4294 329.996 60.3784 329.329 59.5133C328.663 58.6482 327.744 58.0117 326.7 57.6922L326.41 57.6132Z" fill="#2B4271"/>
<path d="M273.303 163.021C273.444 163.285 273.593 163.539 273.751 163.783L262.661 169.286C262.379 169.421 262.127 169.61 261.918 169.843C261.709 170.075 261.548 170.347 261.444 170.642C261.34 170.937 261.295 171.249 261.312 171.561C261.329 171.873 261.407 172.179 261.542 172.461C261.677 172.743 261.866 172.996 262.099 173.205C262.332 173.413 262.603 173.574 262.898 173.678C263.193 173.782 263.505 173.827 263.817 173.81C264.13 173.793 264.435 173.715 264.717 173.58L264.777 173.551L277.395 167.291C277.5 167.354 277.608 167.414 277.718 167.472L266.639 172.969C266.083 173.249 265.658 173.736 265.457 174.325C265.255 174.915 265.293 175.56 265.562 176.122C265.83 176.684 266.309 177.118 266.894 177.331C267.479 177.545 268.125 177.52 268.692 177.263L268.753 177.234L294.163 164.628L295.076 164.162L300.833 160.725L290.487 141.396L280.339 146.825L267.867 143.663C267.616 143.6 267.355 143.586 267.099 143.624C266.842 143.661 266.596 143.748 266.373 143.881C266.151 144.014 265.956 144.189 265.802 144.397C265.647 144.604 265.534 144.84 265.471 145.092L265.269 145.882C265.141 146.389 265.219 146.926 265.487 147.376C265.754 147.825 266.189 148.15 266.696 148.279L274.952 150.377L275.055 150.403L274.82 150.519L257.249 159.233C256.686 159.51 256.256 159.998 256.05 160.59C255.845 161.182 255.882 161.831 256.152 162.397C256.423 162.962 256.905 163.398 257.495 163.61C258.085 163.822 258.735 163.792 259.303 163.528L259.364 163.497L272.023 157.218C272.008 157.452 272.002 157.687 272.002 157.923L259.34 164.201C258.771 164.473 258.333 164.961 258.123 165.557C257.913 166.152 257.948 166.807 258.221 167.376C258.494 167.945 258.981 168.383 259.577 168.593C260.172 168.803 260.827 168.768 261.396 168.495L261.457 168.465L273.12 162.677C273.183 162.792 273.241 162.908 273.303 163.021Z" fill="#D6802B"/>
<path d="M283.983 143.14L295.055 166.36L336.498 149.239L338.389 98.6896L312.552 105.301L316.492 125.027L316.511 125.125L316.503 125.13L283.983 143.14Z" fill="#395DA3"/>
<path d="M316.503 125.13L322.674 129.594L322.556 126.902L316.492 125.027L316.511 125.126L316.503 125.13Z" fill="#2B4271"/>
<path d="M291.791 158.501L330.421 143.092L339.059 101.691L336.629 149.125L295.054 166.36L291.55 158.628L291.791 158.501Z" fill="#2B4271"/>
<path d="M304.365 62.5175L326.881 55.4765L326.989 54.5953L326.321 54.789C324.604 51.4 321.43 49.4456 318.523 50.2461C315.652 51.0385 313.462 54.7309 313.648 58.4766L304.126 61.2507L304.365 62.5175Z" fill="#395DA3"/>
<path d="M318.325 50.3075C318.325 50.3075 323.538 53.0816 321.057 56.0074L314.176 58.2991L314.481 59.2205L326.886 55.4765L326.994 54.5937L326.394 54.9278C326.394 54.9278 323.812 49.0761 318.325 50.3075Z" fill="#2B4271"/>
<path d="M358.291 62.8225H342.435V72.3311H358.291V62.8225Z" fill="#962B35"/>
<path d="M362.346 117.492C369.069 117.492 374.519 112.042 374.519 105.319C374.519 98.5962 369.069 93.1461 362.346 93.1461C355.623 93.1461 350.173 98.5962 350.173 105.319C350.173 112.042 355.623 117.492 362.346 117.492Z" fill="#C84348"/>
<path d="M366.56 236.576L364.606 204.919L380.199 219.292L366.56 236.576Z" fill="#D6802B"/>
<path d="M293.011 261.254L319.569 278.591L317.725 263.466L312.193 266.786C312.193 266.786 312.93 254.983 311.823 255.351C310.716 255.719 303.339 262.729 303.339 262.729L300.02 254.983C300.02 254.983 293.379 261.622 293.011 261.254Z" fill="#D6802B"/>
<path d="M212.514 227.457L180.295 244.359L198.385 270.107L210.4 261.657L199.177 245.944L214.626 242.906L212.514 227.457Z" fill="#395DA3"/>
<path d="M368.329 187.669C375.052 187.669 380.502 182.219 380.502 175.496C380.502 168.773 375.052 163.323 368.329 163.323C361.606 163.323 356.156 168.773 356.156 175.496C356.156 182.219 361.606 187.669 368.329 187.669Z" fill="#C84348"/>
<path d="M174.9 42.6725L166.962 75.4587L158.68 71.3177L167.307 43.7069L174.9 42.6725Z" fill="#D6802B"/>
<path d="M176.989 191.158L169.052 223.944L160.768 219.803L169.396 192.192L176.989 191.158Z" fill="#D6802B"/>
<path d="M346.092 158.58L310.496 214.895" stroke="white" stroke-width="2.31" stroke-miterlimit="10"/>
<path d="M-16.508 469.267C-28.8464 519.354 -1.89966 568.889 15.0779 617.363C29.0431 657.384 36.3525 699.24 36.7571 741.507C37.101 772.909 33.5852 804.541 37.6212 835.682C42.284 875.448 60.8864 912.483 90.588 941.132C105.513 955.279 123.503 966.343 143.414 973.621C163.326 980.9 184.725 984.233 206.251 983.411C247.033 981.069 284.501 962.341 322.801 949.089C359.664 936.369 398.195 928.524 437.247 925.787C463.307 923.931 489.57 924.381 515.606 921.818C583.794 914.989 659.506 881.041 694.47 823.356C760.228 714.73 705.512 566.795 594.646 506.765C542.97 478.785 482.617 466.156 422.467 464.135C379.459 462.726 335.163 466.423 294.258 454.956C249.077 442.45 212.659 412.912 170.658 393.619C93.2915 358.087 4.24157 385.328 -16.508 469.267Z" fill="#3598F1" fill-opacity="0.2"/>
</g>
<defs>
<clipPath id="clip0_108_456">
<rect width="394.566" height="300" fill="white"/>
</clipPath>
</defs>
</svg>
