<svg width="379" height="400" viewBox="0 0 379 500" fill="none" xmlns="http://www.w3.org/2000/svg">
<path d="M109.768 96.3395C109.767 101.24 108.314 106.029 105.591 110.103C102.868 114.177 98.9989 117.353 94.4717 119.228C89.9446 121.102 84.9631 121.593 80.1573 120.637C75.3514 119.681 70.937 117.321 67.4721 113.856C64.0073 110.391 61.6476 105.977 60.6915 101.171C59.7355 96.3653 60.2259 91.3838 62.1008 86.8567C63.9757 82.3295 67.151 78.46 71.225 75.7374C75.299 73.0147 80.0888 71.5612 84.9889 71.5607C91.56 71.5628 97.8614 74.1741 102.508 78.8206C107.154 83.467 109.766 89.7684 109.768 96.3395Z" fill="#395DA3"/>
<path d="M94.633 119.176C89.391 121.398 83.5439 121.747 78.0749 120.164C72.6059 118.582 67.8486 115.165 64.6029 110.487C61.3573 105.809 59.8212 100.157 60.2531 94.4799C60.6849 88.803 63.0583 83.4479 66.9741 79.315C66.6187 85.7234 67.604 107.063 94.633 119.176Z" fill="#2B4271"/>
<path d="M189.24 163.525C189.242 164.137 189.099 164.741 188.822 165.286C188.545 165.832 188.141 166.303 187.645 166.661L150.429 193.581L150.149 193.194L139.823 200.195L119.89 170.809L135.31 160.355L140.186 140.085C140.385 139.262 140.903 138.553 141.624 138.112C142.346 137.67 143.214 137.534 144.036 137.732L145.322 138.041C145.729 138.139 146.113 138.316 146.452 138.563C146.791 138.81 147.078 139.121 147.296 139.478C147.514 139.836 147.66 140.233 147.725 140.647C147.79 141.061 147.773 141.483 147.674 141.891L144.454 155.295L144.415 155.465L144.758 155.204L170.493 136.582C171.321 135.983 172.354 135.737 173.363 135.899C174.373 136.06 175.277 136.617 175.877 137.445C176.476 138.273 176.722 139.306 176.56 140.315C176.399 141.325 175.843 142.229 175.014 142.829L156.471 156.244C156.819 156.398 157.161 156.568 157.498 156.748L176.039 143.333C176.868 142.747 177.894 142.511 178.896 142.677C179.898 142.843 180.793 143.398 181.389 144.221C181.984 145.043 182.23 146.067 182.075 147.071C181.919 148.074 181.374 148.976 180.557 149.579L163.473 161.941C163.597 162.116 163.717 162.286 163.834 162.451C164.095 162.851 164.356 163.256 164.589 163.669L180.832 151.908C181.661 151.322 182.688 151.086 183.689 151.252C184.691 151.418 185.587 151.973 186.182 152.795C186.777 153.618 187.024 154.642 186.868 155.646C186.712 156.649 186.167 157.551 185.351 158.154L166.87 171.525C166.87 171.724 166.886 171.925 166.889 172.124L183.119 160.381C183.694 159.964 184.373 159.715 185.081 159.66C185.789 159.605 186.498 159.746 187.131 160.069C187.763 160.392 188.294 160.884 188.665 161.489C189.036 162.095 189.232 162.792 189.232 163.502L189.24 163.525Z" fill="#D6802B"/>
<path d="M151.354 153.134C151.354 153.134 166.643 157.809 168.723 176.426" stroke="black" stroke-width="2.31" stroke-miterlimit="10"/>
<path d="M61.0806 446.977L47.1035 473.745L57.2492 477.639L66.0672 467.078L65.4191 482.897L114.177 477.743L84.4402 469.006L84.5213 450.751L61.0806 446.977Z" fill="#D6802B"/>
<path d="M56.2821 455.999L84.8531 457.313L84.4401 469.006L53.6111 461.278L56.2821 455.999Z" fill="#A85D23"/>
<path d="M144.765 155.219L144.423 155.481L144.462 155.311L144.765 155.219Z" fill="#D6802B"/>
<path d="M152.24 196.165L72.4363 246.91L55.5634 223.618L51.0342 217.366L66.9636 195.287L76.9603 195.857L127.297 162.799L143.71 184.752L144.433 185.722L152.24 196.165Z" fill="#C84348"/>
<path d="M128.695 164.61L155.677 189.762L150.181 193.962L128.695 164.61Z" fill="#A85D23"/>
<path d="M152.24 196.165L72.4363 246.91L44.605 222.677L55.5635 223.618L87.2707 226.344L118.23 203.865L105.599 197.802L111.621 186.872L132.592 193.437L143.506 184.7L152.24 196.165Z" fill="#962B35"/>
<path d="M134.962 171.708C134.962 171.708 147.651 167.955 147.421 156.884" stroke="black" stroke-width="2.31" stroke-miterlimit="10"/>
<path d="M104.444 136.763L65.236 135.218L36.9551 235.4L114.631 247.288L104.444 136.763Z" fill="#C84348"/>
<path d="M37.572 234.399L46.0921 456.684L89.2935 457.303L87.9554 244.126L37.572 234.399Z" fill="#030303"/>
<path d="M78.0762 430.355L52.9734 447.139L60.0064 455.421L72.81 450.385L64.6558 463.952L109.909 482.816L88.0076 460.889L96.8335 444.907L78.0762 430.355Z" fill="#D6802B"/>
<path d="M69.3863 436.003L93.9769 450.827L88.0076 460.889L64.1697 439.604L69.3863 436.003Z" fill="#A85D23"/>
<path d="M64.6558 463.952L99.6508 479.047L77.7103 481.63L64.6558 463.952Z" fill="#A85D23"/>
<path d="M99.2875 117.684C99.0365 120.575 97.6898 123.26 95.5231 125.189C93.3564 127.119 90.5339 128.147 87.6338 128.062C87.4195 128.062 87.2052 128.044 86.9883 128.026C84.71 127.831 82.5435 126.954 80.7717 125.508C78.9999 124.063 77.7053 122.117 77.0569 119.924C77.0558 119.919 77.0558 119.913 77.0569 119.908C76.9286 119.474 76.8256 119.032 76.7485 118.586C76.6159 117.786 76.5686 116.975 76.6074 116.166C76.6074 116.017 76.623 115.868 76.6361 115.719C76.7302 114.658 76.9739 113.616 77.3601 112.624C77.3836 112.562 77.4071 112.499 77.4359 112.436C77.4646 112.373 77.4803 112.321 77.5038 112.266C77.6162 112.005 77.739 111.744 77.8723 111.482C79.0818 109.146 81.0643 107.301 83.4817 106.263C85.8992 105.225 88.6018 105.058 91.1288 105.79C93.6557 106.522 95.8505 108.108 97.3388 110.278C98.8271 112.447 99.5167 115.066 99.2901 117.687L99.2875 117.684Z" fill="#D6802B"/>
<path d="M79.8064 116.563C79.7412 117.319 79.4541 118.039 78.9813 118.633C78.5085 119.227 77.8709 119.668 77.1485 119.9L77.0623 119.927C76.8776 119.982 76.6888 120.023 76.4977 120.049C76.2129 120.089 75.9244 120.096 75.6379 120.07C74.6871 119.99 73.7998 119.561 73.1474 118.865C72.495 118.168 72.124 117.255 72.1061 116.301C72.0883 115.347 72.4248 114.42 73.0506 113.7C73.6764 112.98 74.547 112.518 75.4941 112.402C75.762 112.368 76.0327 112.363 76.3017 112.387C76.8069 112.43 77.2985 112.573 77.7484 112.807C78.1983 113.041 78.5977 113.361 78.9237 113.75C79.2497 114.138 79.4959 114.587 79.6483 115.07C79.8006 115.554 79.8562 116.063 79.8117 116.568L79.8064 116.563Z" fill="#D6802B"/>
<path d="M89.2202 153.526L89.1208 153.414L89.1993 153.152L89.2202 153.526Z" fill="#D6802B"/>
<path d="M112.368 163.619H112.366L112.363 163.546L112.368 163.619Z" fill="#D6802B"/>
<path d="M112.368 163.619H112.366L112.363 163.546L112.368 163.619Z" fill="#D6802B"/>
<path d="M112.368 163.619H112.366L112.363 163.546L112.368 163.619Z" fill="#D6802B"/>
<path d="M77.8618 173.211L88.7602 188.581L89.0398 163.431C89.0398 163.431 84.5681 179.64 77.8618 173.211Z" fill="#962B35"/>
<path d="M90.446 122.477L87.6339 128.062C87.4196 128.062 87.2053 128.044 86.9883 128.026C85.259 127.879 83.5867 127.337 82.1011 126.439C85.9586 126.029 90.3049 122.59 90.446 122.477Z" fill="#A85D23"/>
<path d="M118.764 157.004C118.764 156.795 118.74 156.586 118.722 156.38L118.186 138.733C118.177 138.38 118.099 138.032 117.955 137.709C117.811 137.386 117.605 137.095 117.348 136.852C117.091 136.609 116.789 136.42 116.459 136.294C116.129 136.168 115.777 136.109 115.423 136.12L114.211 136.164C113.5 136.186 112.826 136.489 112.339 137.007C111.851 137.525 111.589 138.216 111.61 138.927L111.785 144.76V144.917C111.6 144.797 111.412 144.682 111.221 144.575C111.122 144.512 111.02 144.457 110.92 144.399L110.416 137.685C110.389 137.324 110.291 136.972 110.128 136.648C109.965 136.325 109.74 136.037 109.465 135.801C109.191 135.565 108.872 135.385 108.528 135.272C108.184 135.159 107.821 135.115 107.46 135.142L106.415 135.221C105.685 135.276 105.007 135.618 104.53 136.172C104.053 136.726 103.815 137.447 103.869 138.177L104.115 141.465L104.185 142.39V142.541H104.133C103.971 142.541 103.806 142.541 103.644 142.541C103.417 142.541 103.192 142.541 102.965 142.557C102.787 142.557 102.609 142.575 102.442 142.591L102.361 141.509L101.974 136.337C101.919 135.596 101.571 134.907 101.008 134.422C100.445 133.938 99.7123 133.697 98.9713 133.752L98.0069 133.812C97.266 133.868 96.5774 134.215 96.0926 134.778C95.6079 135.341 95.3667 136.074 95.4222 136.815L95.9684 144.109L96.005 144.593C95.7436 144.747 95.4823 144.909 95.234 145.079L95.1817 145.113L95.1687 144.948L95.1321 144.501L93.7051 125.472C93.6436 124.655 93.2603 123.896 92.6395 123.362C92.0186 122.827 91.2109 122.561 90.3938 122.621L89.9991 122.652C89.5942 122.683 89.1993 122.793 88.837 122.977C88.4747 123.16 88.1522 123.414 87.8878 123.722C87.6235 124.03 87.4225 124.388 87.2964 124.774C87.1703 125.16 87.1216 125.567 87.153 125.972L89.1915 153.152L89.2203 153.515L89.121 153.414L80.8257 145.087C80.573 144.834 80.2729 144.633 79.9427 144.496C79.6124 144.359 79.2584 144.289 78.9008 144.289C78.5433 144.289 78.1893 144.359 77.859 144.496C77.5287 144.633 77.2286 144.834 76.976 145.087L76.1762 145.884C75.666 146.395 75.3794 147.087 75.3794 147.809C75.3794 148.531 75.666 149.223 76.1762 149.734L88.7211 162.315L89.4242 178.192L119.663 176.857L118.764 157.004Z" fill="#D6802B"/>
<path d="M77.0988 118.131L77.0073 119.796C77.0213 119.209 77.0518 118.654 77.0988 118.131Z" fill="#A85D23"/>
<path d="M77.0988 118.131L77.0073 119.796C77.0213 119.209 77.0518 118.654 77.0988 118.131Z" fill="#A85D23"/>
<path d="M88.9459 162.684L88.6375 162.592L76.1631 149.734C76.1631 149.734 74.5402 148.027 75.792 146.357L76.5996 145.364L89.1445 153.515V153.312L118.766 162.689L88.9459 162.684Z" fill="#A85D23"/>
<path d="M95.1843 145.118C95.4457 144.948 95.7436 144.755 96.005 144.596L95.9684 144.112L96.1618 144.695L96.4493 147.588L95.1843 145.118Z" fill="#A85D23"/>
<path d="M103.655 142.536C103.817 142.536 104.063 142.536 104.225 142.536L103.163 146.171L102.379 143.229L102.353 141.493L102.434 142.575C102.609 142.56 102.787 142.549 102.957 142.541C103.203 142.541 103.427 142.536 103.655 142.536Z" fill="#A85D23"/>
<path d="M111.989 145.544L111.056 147.873L110.933 144.402L111.229 144.577C111.419 144.684 111.608 144.799 111.793 144.92V144.763L111.989 145.544Z" fill="#A85D23"/>
<path d="M121.458 162.592H84.5681V226.589H121.458V162.592Z" fill="#C84348"/>
<path d="M361.523 92.9106H149.125V369.768H361.523V92.9106Z" fill="#037DEA"/>
<path d="M112.572 226.386L88.8179 224.708L55.0042 173.287L36.856 235.63L114.969 247.364L112.572 226.386Z" fill="#962B35"/>
<path d="M354.26 102.382H156.393V360.297H354.26V102.382Z" fill="white"/>
<path d="M41.5732 236.416L109.546 345.687L56.1906 429.576L96.1984 456.678C96.1984 456.678 165.031 359.022 166.322 361.173C167.613 363.323 114.632 247.288 114.632 247.288L41.5732 236.416Z" fill="#030303"/>
<path d="M68.2678 437.741L56.2195 429.545L90.3442 375.73" stroke="white" stroke-width="2.31" stroke-miterlimit="10"/>
<path d="M51.8992 254.483L109.546 345.687" stroke="white" stroke-width="2.31" stroke-miterlimit="10"/>
<path d="M282.155 67.9515C282.191 64.1853 281.481 60.4492 280.064 56.9593C278.648 53.4693 276.554 50.2947 273.904 47.6187C271.253 44.9428 268.099 42.8186 264.623 41.3689C261.146 39.9193 257.417 39.1729 253.651 39.1729C249.885 39.1729 246.156 39.9193 242.679 41.3689C239.203 42.8186 236.049 44.9428 233.398 47.6187C230.748 50.2947 228.654 53.4693 227.238 56.9593C225.821 60.4492 225.111 64.1853 225.147 67.9515H172.615V98.6864H333.03V67.9515H282.155ZM253.09 46.782C254.269 46.7825 255.422 47.1326 256.402 47.7879C257.382 48.4433 258.145 49.3745 258.596 50.4639C259.047 51.5532 259.165 52.7518 258.934 53.908C258.704 55.0643 258.136 56.1262 257.302 56.9597C256.468 57.7932 255.406 58.3607 254.25 58.5905C253.094 58.8203 251.895 58.7021 250.806 58.2508C249.717 57.7995 248.786 57.0354 248.131 56.0551C247.476 55.0748 247.126 53.9224 247.126 52.7434C247.126 51.9603 247.281 51.1849 247.58 50.4615C247.88 49.738 248.32 49.0807 248.873 48.5271C249.427 47.9735 250.085 47.5344 250.808 47.235C251.532 46.9356 252.307 46.7816 253.09 46.782Z" fill="#037BE8"/>
<path d="M340.471 127.751H172.048C168.549 127.751 165.713 130.588 165.713 134.087C165.713 137.585 168.549 140.422 172.048 140.422H340.471C343.97 140.422 346.806 137.585 346.806 134.087C346.806 130.588 343.97 127.751 340.471 127.751Z" fill="#037DEC"/>
<path d="M340.471 151.534H172.048C168.549 151.534 165.713 154.371 165.713 157.87C165.713 161.368 168.549 164.205 172.048 164.205H340.471C343.97 164.205 346.806 161.368 346.806 157.87C346.806 154.371 343.97 151.534 340.471 151.534Z" fill="#03EB97"/>
<path d="M340.471 174.533H172.048C168.549 174.533 165.713 177.37 165.713 180.869C165.713 184.367 168.549 187.204 172.048 187.204H340.471C343.97 187.204 346.806 184.367 346.806 180.869C346.806 177.37 343.97 174.533 340.471 174.533Z" fill="#03EB97"/>
<path d="M340.471 197.794H172.048C168.549 197.794 165.713 200.63 165.713 204.129C165.713 207.628 168.549 210.464 172.048 210.464H340.471C343.97 210.464 346.806 207.628 346.806 204.129C346.806 200.63 343.97 197.794 340.471 197.794Z" fill="#03EB97"/>
<path d="M340.471 220.793H172.048C168.549 220.793 165.713 223.629 165.713 227.128C165.713 230.627 168.549 233.463 172.048 233.463H340.471C343.97 233.463 346.806 230.627 346.806 227.128C346.806 223.629 343.97 220.793 340.471 220.793Z" fill="#03EB97"/>
<path d="M340.471 244.314H172.048C168.549 244.314 165.713 247.151 165.713 250.649C165.713 254.148 168.549 256.985 172.048 256.985H340.471C343.97 256.985 346.806 254.148 346.806 250.649C346.806 247.151 343.97 244.314 340.471 244.314Z" fill="#03EB97"/>
<path d="M340.471 267.313H172.048C168.549 267.313 165.713 270.15 165.713 273.648C165.713 277.147 168.549 279.984 172.048 279.984H340.471C343.97 279.984 346.806 277.147 346.806 273.648C346.806 270.15 343.97 267.313 340.471 267.313Z" fill="#03EB97"/>
<path d="M340.471 290.574H172.048C168.549 290.574 165.713 293.41 165.713 296.909C165.713 300.408 168.549 303.244 172.048 303.244H340.471C343.97 303.244 346.806 300.408 346.806 296.909C346.806 293.41 343.97 290.574 340.471 290.574Z" fill="#03EB97"/>
<path d="M340.471 313.573H172.048C168.549 313.573 165.713 316.409 165.713 319.908C165.713 323.407 168.549 326.243 172.048 326.243H340.471C343.97 326.243 346.806 323.407 346.806 319.908C346.806 316.409 343.97 313.573 340.471 313.573Z" fill="#03EB97"/>
<path d="M116.126 76.4454L187.261 32.4677L181.802 9.46616L107.967 49.453L116.126 76.4454Z" fill="#395DA3"/>
<path d="M172.396 429.364L224.922 424.537L223.205 470.127L201.923 469.315L203.196 441.347L182.003 449.828L172.396 429.364Z" fill="#395DA3"/>
<path d="M197.281 411.979C203.191 411.979 207.981 407.189 207.981 401.28C207.981 395.37 203.191 390.58 197.281 390.58C191.372 390.58 186.582 395.37 186.582 401.28C186.582 407.189 191.372 411.979 197.281 411.979Z" fill="#D6802B"/>
<path d="M264.522 400.143L251.42 435.974C251.42 435.974 243.405 431.359 242.83 430.457C242.255 429.555 244.374 408.333 244.374 408.333L260.317 398.177L264.522 400.143Z" fill="#C84348"/>
<path d="M41.0114 171.841C44.975 171.841 48.1882 168.628 48.1882 164.665C48.1882 160.701 44.975 157.488 41.0114 157.488C37.0478 157.488 33.8347 160.701 33.8347 164.665C33.8347 168.628 37.0478 171.841 41.0114 171.841Z" fill="#D6802B"/>
<path d="M30.2489 142.664C39.9963 142.664 47.898 134.762 47.898 125.015C47.898 115.268 39.9963 107.366 30.2489 107.366C20.5016 107.366 12.5999 115.268 12.5999 125.015C12.5999 134.762 20.5016 142.664 30.2489 142.664Z" fill="#C84348"/>
<path d="M127.114 106.328C132.433 106.328 136.745 102.017 136.745 96.6975C136.745 91.3786 132.433 87.0667 127.114 87.0667C121.795 87.0667 117.483 91.3786 117.483 96.6975C117.483 102.017 121.795 106.328 127.114 106.328Z" fill="#C84348"/>
</svg>
