<svg width="516" height="450" viewBox="0 0 516 500" fill="none" xmlns="http://www.w3.org/2000/svg">
<path d="M388.775 197.726C398.825 184.325 404.245 168.019 404.219 151.268C404.219 108.427 369.487 73.6948 326.642 73.6948C314.364 73.6765 302.259 76.5858 291.33 82.1814C287.192 79.881 282.524 78.7014 277.789 78.7595C273.054 78.8176 268.417 80.1112 264.335 82.5125C260.254 84.9137 256.871 88.3391 254.521 92.4498C252.17 96.5604 250.934 101.214 250.935 105.949C250.935 106.471 250.953 106.99 250.981 107.502C243.676 108.897 236.795 111.971 230.883 116.483C220.148 104.201 206.907 94.3606 192.05 87.624C177.194 80.8873 161.067 77.4106 144.755 77.4279C81.5163 77.4279 30.2485 128.703 30.2485 191.934C30.2281 208.279 33.7188 224.437 40.4843 239.316C36.3642 242.121 33.1063 246.018 31.0753 250.57C29.0443 255.121 28.3204 260.149 28.9846 265.089C29.6489 270.028 31.6751 274.686 34.8364 278.54C37.9976 282.393 42.1691 285.291 46.8839 286.908C46.7914 288.33 46.7381 289.773 46.7381 291.224C46.739 305.217 51.2158 318.843 59.514 330.109C67.8122 341.376 79.4967 349.693 92.8595 353.845C106.222 357.997 120.563 357.765 133.785 353.184C147.006 348.603 158.416 339.913 166.346 328.384C172.11 339.215 179.964 348.795 189.453 356.571C198.942 364.347 209.879 370.165 221.631 373.688C233.382 377.211 245.716 378.37 257.918 377.096C270.121 375.823 281.949 372.143 292.721 366.27C312.197 396.65 346.26 416.784 385.024 416.784C445.536 416.784 494.589 367.72 494.589 307.219C494.589 247.963 447.548 199.703 388.775 197.726Z" fill="#EDF2FB"/>
<path d="M93.3022 78.139C96.7914 78.139 99.62 75.3104 99.62 71.8212C99.62 68.3319 96.7914 65.5034 93.3022 65.5034C89.813 65.5034 86.9844 68.3319 86.9844 71.8212C86.9844 75.3104 89.813 78.139 93.3022 78.139Z" fill="#47579F"/>
<path d="M87.5927 132.33L85.8779 127.036L65.5741 133.614L67.2889 138.907L87.5927 132.33Z" fill="#CB4B6C"/>
<path d="M45.3691 237.115C48.8583 237.115 51.6869 234.287 51.6869 230.798C51.6869 227.308 48.8583 224.48 45.3691 224.48C41.8799 224.48 39.0513 227.308 39.0513 230.798C39.0513 234.287 41.8799 237.115 45.3691 237.115Z" fill="#61ADC1"/>
<path d="M64.8736 96.8542C66.6899 96.8542 68.1623 95.3818 68.1623 93.5655C68.1623 91.7493 66.6899 90.2769 64.8736 90.2769C63.0574 90.2769 61.585 91.7493 61.585 93.5655C61.585 95.3818 63.0574 96.8542 64.8736 96.8542Z" fill="#61ADC1"/>
<path d="M285.343 399.939C287.16 399.939 288.632 398.466 288.632 396.65C288.632 394.834 287.16 393.361 285.343 393.361C283.527 393.361 282.055 394.834 282.055 396.65C282.055 398.466 283.527 399.939 285.343 399.939Z" fill="#CB4B6C"/>
<path d="M374.098 376.373L372.373 371.087L352.098 377.703L353.822 382.989L374.098 376.373Z" fill="#CB4B6C"/>
<path d="M70.0366 175.855L68.3218 170.561L48.018 177.139L49.7328 182.432L70.0366 175.855Z" fill="#CB4B6C"/>
<path d="M254.931 368.755C256.747 368.755 258.219 367.283 258.219 365.466C258.219 363.65 256.747 362.178 254.931 362.178C253.114 362.178 251.642 363.65 251.642 365.466C251.642 367.283 253.114 368.755 254.931 368.755Z" fill="#61ADC1"/>
<path d="M212.551 43.0301C214.368 43.0301 215.84 41.5577 215.84 39.7414C215.84 37.9252 214.368 36.4528 212.551 36.4528C210.735 36.4528 209.263 37.9252 209.263 39.7414C209.263 41.5577 210.735 43.0301 212.551 43.0301Z" fill="#CB4B6C"/>
<path d="M463.324 373.436L461.609 368.142L441.306 374.72L443.02 380.013L463.324 373.436Z" fill="#CB4B6C"/>
<path d="M220.135 396.65C221.951 396.65 223.424 395.178 223.424 393.361C223.424 391.545 221.951 390.073 220.135 390.073C218.319 390.073 216.846 391.545 216.846 393.361C216.846 395.178 218.319 396.65 220.135 396.65Z" fill="#CB4B6C"/>
<path d="M491.517 49.7355H107.278V349.738H491.517V49.7355Z" fill="#B7DDFF"/>
<path d="M83.55 444.615V466.278H99.1365L103.89 461.069L109.024 466.694L145.139 466.338L115.875 443.349H83.941C83.6649 443.712 83.5263 444.16 83.55 444.615Z" fill="#87324B"/>
<path d="M66.4846 445.735V467.401H82.0712L86.8389 462.193L91.9728 467.817L128.088 466.751L98.8132 444.487H66.8793C66.6053 444.844 66.4656 445.286 66.4846 445.735Z" fill="#CB4B6C"/>
<path d="M119.345 443.655H67.2593V255.82L116.213 292.312L119.345 443.655Z" fill="#2C3763"/>
<path d="M106.798 444.903H63.0786L62.4849 274.571L106.798 255.82V444.903Z" fill="#47579F"/>
<path d="M83.9873 266.234V439.488" stroke="#F4D9A9" stroke-width="3.14" stroke-miterlimit="10"/>
<path d="M126.925 140.46C126.925 140.46 123.409 158.12 112.629 162.411C112.629 162.411 119.779 184.504 133.175 173.354C133.175 173.354 129.513 165.198 143.962 155.727L126.925 140.46Z" fill="#E1B8BF"/>
<path d="M126.982 142.128L126.214 153.569C126.214 153.569 133.389 160.95 137.101 161.615C137.101 161.615 134.786 164.608 133.961 166.13L121.67 153.772L126.982 142.128Z" fill="#D78295"/>
<path d="M153.234 146.007L152.136 142.096C154.607 132.763 152.527 124.163 146.888 122.015C141.555 119.975 130.299 132.198 130.299 132.198L126.793 141.822C126.793 141.822 126.534 144.94 126.705 146.323L126.214 153.569L134.988 160.637C135.592 161.128 136.289 161.493 137.036 161.71C137.783 161.928 138.567 161.993 139.34 161.902C140.113 161.811 140.86 161.566 141.536 161.181C142.213 160.797 142.806 160.28 143.279 159.663C145.387 156.879 147.24 153.913 148.819 150.799H149.633C150.213 150.795 150.784 150.658 151.303 150.397C151.821 150.136 152.272 149.759 152.62 149.295C152.969 148.831 153.206 148.293 153.312 147.723C153.419 147.152 153.392 146.565 153.234 146.007Z" fill="#E4B1BE"/>
<path d="M116.341 291.892L61.5889 275.182L95.7769 166.866C96.8145 163.66 99.0829 160.998 102.083 159.464C105.083 157.931 108.57 157.652 111.776 158.688L141.605 168.359C144.811 169.397 147.473 171.665 149.007 174.665C150.54 177.665 150.819 181.152 149.782 184.358L116.341 291.892Z" fill="#E2A335"/>
<path d="M202.777 209.259L194.974 203.38L142.975 272.41L150.779 278.288L202.777 209.259Z" fill="#3D4F93"/>
<path d="M200.017 207.182L194.971 203.381L142.972 272.41L148.018 276.212L200.017 207.182Z" fill="#47579F"/>
<path d="M240.873 156.516C235.743 152.655 222.297 161.849 210.845 177.059C199.393 192.269 194.263 207.731 199.393 211.595C204.524 215.46 217.97 206.262 229.425 191.053C240.88 175.843 246.004 160.381 240.873 156.516ZM224.949 188.319C217.063 198.789 207.802 205.118 204.271 202.458C200.741 199.799 204.271 189.151 212.153 178.68C220.035 168.21 229.297 161.878 232.831 164.537C236.365 167.196 232.835 177.845 224.949 188.319Z" fill="#3D4F93"/>
<path d="M236.731 154.212C231.597 150.348 218.151 159.545 206.699 174.751C195.248 189.958 190.121 205.423 195.251 209.288C200.382 213.153 213.828 203.955 225.28 188.745C236.731 173.536 241.862 158.077 236.731 154.212ZM220.803 186.011C212.918 196.482 203.66 202.81 200.126 200.151C196.592 197.491 200.126 186.843 208.008 176.373C215.89 165.902 225.152 159.57 228.685 162.23C232.219 164.889 228.693 175.537 220.803 186.011Z" fill="#47579F"/>
<path d="M203.126 200.67C203.126 200.67 202.06 196.215 206.781 187.021C211.503 177.827 220.43 168.995 223.63 167.04C225.603 165.842 227.683 164.832 229.845 164.022C229.845 164.022 228.067 159.467 221.365 163.499C212.861 168.597 202.444 182.175 200.165 190.103C200.165 190.103 194.942 199.959 203.126 200.67Z" fill="#3D4F93"/>
<path d="M236.208 153.878L240.432 156.232L238.704 158.834C238.704 158.834 238.704 155.268 236.208 153.878Z" fill="#3D4F93"/>
<path d="M195.969 209.764C195.969 209.764 199.237 212.342 202.155 212.171L201.181 209.302C201.181 209.302 198.238 210.607 195.969 209.764Z" fill="#3D4F93"/>
<path d="M152.623 243.174L170.265 252.492L176.728 245.812L173.532 244.333L174.776 243.462L177.404 244.567L180.721 240.241L176.963 238.847L178.033 237.944L181.364 239.17L184.731 235.583L179.718 234.602L180.891 233.628L184.607 234.741L187.767 229.752L157.853 224.988L152.623 243.174Z" fill="#E4B1BE"/>
<path d="M158.489 225.369L163.189 226.009L160.587 247.33L158.023 246.395L158.489 225.369Z" fill="#D78295"/>
<path d="M113.521 172.131L113.518 172.129C106.2 168.457 97.2898 171.412 93.6172 178.73L72.2194 221.367C68.5468 228.685 71.5021 237.595 78.8202 241.268L78.8234 241.269C86.1415 244.942 95.0513 241.987 98.724 234.669L120.122 192.031C123.794 184.713 120.839 175.803 113.521 172.131Z" fill="#E2A335"/>
<path d="M160.609 220.509L157.499 250.001L82.7188 242.114C79.1807 241.741 75.9358 239.978 73.6978 237.212C71.4599 234.447 70.4122 230.905 70.7853 227.367L71.0814 224.56C71.4545 221.022 73.2178 217.777 75.9834 215.539C78.7491 213.301 82.2904 212.253 85.8285 212.626L160.609 220.513L160.609 220.509Z" fill="#E2A335"/>
<path d="M73.6127 237.108C73.6127 237.108 76.0552 242.065 87.834 242.655L130.203 247.33L116.213 292.312L61.5957 275.182L73.6127 237.108Z" fill="#B97A35"/>
<path d="M109.148 213.878C109.122 213.919 109.089 213.954 109.049 213.981C108.797 214.172 108.534 214.347 108.259 214.504C105.028 216.452 94.127 221.998 94.127 221.998L114.986 215.698L108.586 215.023L109.148 213.878Z" fill="#B97A35"/>
<path d="M120.643 190.85L108.58 215.026L139.248 218.262C139.248 218.262 115.687 213.729 120.643 190.85Z" fill="#B97A35"/>
<path d="M467.885 230.609H248.905V335.883H467.885V230.609Z" fill="#47579F"/>
<path d="M467.885 70.7723H361.943V225.369H467.885V70.7723Z" fill="#47579F"/>
<path d="M353.324 190.85H251.439V221.998H353.324V190.85Z" fill="#47579F"/>
<path d="M242.864 230.609H197.402V335.883H242.864V230.609Z" fill="#47579F"/>
<path d="M414.562 166.592C437.989 166.592 456.98 147.601 456.98 124.173C456.98 100.746 437.989 81.7548 414.562 81.7548C391.135 81.7548 372.143 100.746 372.143 124.173C372.143 147.601 391.135 166.592 414.562 166.592Z" fill="#E2A335"/>
<path d="M269.814 217.735C276.113 217.735 281.219 212.629 281.219 206.33C281.219 200.031 276.113 194.924 269.814 194.924C263.515 194.924 258.408 200.031 258.408 206.33C258.408 212.629 263.515 217.735 269.814 217.735Z" fill="#E2A335"/>
<path d="M219.779 274.215C229.648 274.215 237.648 266.215 237.648 256.346C237.648 246.477 229.648 238.477 219.779 238.477C209.91 238.477 201.91 246.477 201.91 256.346C201.91 266.215 209.91 274.215 219.779 274.215Z" fill="#E2A335"/>
<path d="M271.716 106.233H338.627" stroke="#26274A" stroke-width="2.55" stroke-miterlimit="10"/>
<path d="M271.716 109.789H338.627" stroke="#26274A" stroke-width="2.55" stroke-miterlimit="10"/>
<path d="M271.716 115.833H338.627" stroke="#26274A" stroke-width="2.55" stroke-miterlimit="10"/>
<path d="M271.716 120.099H338.627" stroke="#26274A" stroke-width="2.55" stroke-miterlimit="10"/>
<path d="M271.716 123.654H338.627" stroke="#26274A" stroke-width="2.55" stroke-miterlimit="10"/>
<path d="M367.112 177.99H459.878" stroke="#26274A" stroke-width="3" stroke-miterlimit="10"/>
<path d="M367.112 182.257H459.878" stroke="#26274A" stroke-width="3" stroke-miterlimit="10"/>
<path d="M367.112 185.812H459.878" stroke="#26274A" stroke-width="3" stroke-miterlimit="10"/>
<path d="M367.112 189.723H459.878" stroke="#26274A" stroke-width="3" stroke-miterlimit="10"/>
<path d="M367.112 193.278H459.878" stroke="#26274A" stroke-width="3" stroke-miterlimit="10"/>
<path d="M367.112 202.878H459.878" stroke="#26274A" stroke-width="3" stroke-miterlimit="10"/>
<path d="M367.112 207.144H459.878" stroke="#26274A" stroke-width="3" stroke-miterlimit="10"/>
<path d="M367.112 210.699H459.878" stroke="#26274A" stroke-width="3" stroke-miterlimit="10"/>
<path d="M367.112 214.61H459.878" stroke="#26274A" stroke-width="3" stroke-miterlimit="10"/>
<path d="M367.112 218.166H459.878" stroke="#26274A" stroke-width="3" stroke-miterlimit="10"/>
<path d="M265.604 245.84H449.887" stroke="#26274A" stroke-width="4.99" stroke-miterlimit="10"/>
<path d="M265.604 251.774H449.887" stroke="#26274A" stroke-width="4.99" stroke-miterlimit="10"/>
<path d="M265.604 256.72H449.887" stroke="#26274A" stroke-width="4.99" stroke-miterlimit="10"/>
<path d="M265.604 262.159H449.887" stroke="#26274A" stroke-width="4.99" stroke-miterlimit="10"/>
<path d="M265.604 267.105H449.887" stroke="#26274A" stroke-width="4.99" stroke-miterlimit="10"/>
<path d="M265.604 274.283H449.887" stroke="#26274A" stroke-width="4.99" stroke-miterlimit="10"/>
<path d="M265.604 280.217H449.887" stroke="#26274A" stroke-width="4.99" stroke-miterlimit="10"/>
<path d="M265.604 285.162H449.887" stroke="#26274A" stroke-width="4.99" stroke-miterlimit="10"/>
<path d="M265.604 290.602H449.887" stroke="#26274A" stroke-width="4.99" stroke-miterlimit="10"/>
<path d="M265.604 295.547H449.887" stroke="#26274A" stroke-width="4.99" stroke-miterlimit="10"/>
<path d="M265.604 301.303H449.887" stroke="#26274A" stroke-width="4.99" stroke-miterlimit="10"/>
<path d="M265.604 307.237H449.887" stroke="#26274A" stroke-width="4.99" stroke-miterlimit="10"/>
<path d="M265.604 312.183H449.887" stroke="#26274A" stroke-width="4.99" stroke-miterlimit="10"/>
<path d="M265.604 317.622H449.887" stroke="#26274A" stroke-width="4.99" stroke-miterlimit="10"/>
<path d="M265.604 322.568H449.887" stroke="#26274A" stroke-width="4.99" stroke-miterlimit="10"/>
<path d="M403.334 126.143C403.334 126.143 404.497 142.16 396.245 148.403C396.245 148.403 410.32 163.606 415.234 158.244C415.234 158.244 411.753 147.265 421.928 135.7L403.334 126.143Z" fill="#E1B8BF"/>
<path d="M427.282 124.675L425.409 121.564C425.323 112.956 421.498 106.059 416.14 105.543C410.132 104.971 404.486 112.654 403.522 122.691C403.195 126.129 403.615 128.962 404.546 131.224L405.855 137.57L415.073 141.57C415.708 141.846 416.392 141.993 417.084 142.001C417.777 142.009 418.464 141.879 419.105 141.618C419.746 141.357 420.329 140.97 420.819 140.481C421.308 139.992 421.695 139.409 421.957 138.768C423.109 135.877 424.001 132.888 424.619 129.837L425.331 129.638C425.826 129.496 426.283 129.241 426.664 128.895C427.046 128.548 427.342 128.118 427.531 127.638C427.72 127.158 427.796 126.641 427.752 126.127C427.709 125.613 427.549 125.116 427.282 124.675Z" fill="#E4B1BE"/>
<path d="M404.767 132.969L405.855 137.57C405.855 137.57 414.416 142.48 417.552 141.932C417.552 141.932 415.099 146.743 414.846 150.465L396.245 148.41C396.245 148.41 402.331 140.883 403.035 134.43C403.035 134.423 404.639 134.79 404.767 132.969Z" fill="#D78295"/>
<path d="M403.782 126.9L405.25 134.516L401.155 136.852L389.205 111.395L393.027 103.944L399.459 105.707L403.839 91.8874L429.363 86.0496L431.663 109.575L415.422 110.684L408.934 116.206L403.238 119.687L403.782 126.9Z" fill="#26274A"/>
<path d="M406.148 121.519C406.404 118.843 404.82 116.503 402.609 116.291C400.398 116.079 398.398 118.077 398.142 120.753C397.886 123.428 399.47 125.769 401.681 125.981C403.892 126.193 405.891 124.195 406.148 121.519Z" fill="#E4B1BE"/>
<path d="M405.069 115.854L405.488 124.959L410.327 116.782L415.404 115.825L416.144 109.977C416.144 109.977 406.63 111.246 405.122 115.555" fill="#26274A"/>
<path d="M251.44 70.7723H175.91V142.768H251.44V70.7723Z" fill="#E2A335"/>
<path d="M198.522 79.3904H190.103V136.852H198.522V79.3904Z" fill="#47579F"/>
<path d="M198.522 102.322H190.103V136.852H198.522V102.322Z" fill="#B7DDFF"/>
<path d="M210.255 79.3904H201.836V136.852H210.255V79.3904Z" fill="#47579F"/>
<path d="M210.255 94.5006H201.836V136.852H210.255V94.5006Z" fill="#B7DDFF"/>
<path d="M222.343 79.3904H213.924V136.852H222.343V79.3904Z" fill="#47579F"/>
<path d="M222.343 111.399H213.924V136.848H222.343V111.399Z" fill="#B7DDFF"/>
<path d="M234.075 79.3904H225.656V136.852H234.075V79.3904Z" fill="#47579F"/>
<path d="M234.075 102.322H225.656V136.852H234.075V102.322Z" fill="#B7DDFF"/>
<path d="M271.716 136.098H338.627" stroke="#26274A" stroke-width="2.55" stroke-miterlimit="10"/>
<path d="M271.716 140.364H338.627" stroke="#26274A" stroke-width="2.55" stroke-miterlimit="10"/>
<path d="M271.716 143.92H338.627" stroke="#26274A" stroke-width="2.55" stroke-miterlimit="10"/>
<path d="M271.716 147.831H338.627" stroke="#26274A" stroke-width="2.55" stroke-miterlimit="10"/>
<path d="M271.716 151.386H338.627" stroke="#26274A" stroke-width="2.55" stroke-miterlimit="10"/>
<path d="M271.716 157.43H338.627" stroke="#26274A" stroke-width="2.55" stroke-miterlimit="10"/>
<path d="M271.716 161.696H338.627" stroke="#26274A" stroke-width="2.55" stroke-miterlimit="10"/>
<path d="M271.716 165.252H338.627" stroke="#26274A" stroke-width="2.55" stroke-miterlimit="10"/>
<path d="M271.716 203.066L295.665 214.61L308.211 200.759L325.32 214.61L335.203 200.67L346.609 213.878" stroke="#E2A335" stroke-width="3" stroke-miterlimit="10"/>
<path d="M222.346 283.242H215.989V330.048H222.346V283.242Z" fill="#E2A335"/>
<path d="M419.138 123.402C419.597 123.402 419.97 123.029 419.97 122.57C419.97 122.11 419.597 121.738 419.138 121.738C418.678 121.738 418.306 122.11 418.306 122.57C418.306 123.029 418.678 123.402 419.138 123.402Z" fill="#020201"/>
<path d="M416.08 120.433L420.93 118.627" stroke="#020201" stroke-width="1.67" stroke-miterlimit="10"/>
<path d="M423.674 133.403C423.674 133.403 421.377 134.743 417.474 131.27C417.474 131.27 418.643 135.71 422.65 137.182L423.674 133.403Z" fill="#D78295"/>
<path d="M145.054 142.238C145.568 142.238 145.985 141.821 145.985 141.307C145.985 140.792 145.568 140.375 145.054 140.375C144.539 140.375 144.122 140.792 144.122 141.307C144.122 141.821 144.539 142.238 145.054 142.238Z" fill="#020201"/>
<path d="M142.391 138.085L148.168 137.581" stroke="#020201" stroke-width="1.87" stroke-miterlimit="10"/>
<path d="M146.735 154.369C146.735 154.369 143.848 155.133 140.67 150.198C140.67 150.198 140.61 155.346 144.503 158.134L146.735 154.369Z" fill="#D78295"/>
<path d="M131.422 130.459C131.422 130.459 127.081 141.79 129.67 142.266C132.258 142.743 134.067 136.194 135.162 135.486C136.258 134.779 140.307 135.323 140.666 132.624C141.025 129.926 141.05 127.131 142.821 126.403C144.591 125.674 152.303 132.479 155.577 133.382C158.852 134.285 160.199 124.056 157.184 120.583C154.169 117.109 151.293 114.837 146.518 112.53C146.518 112.53 130.555 106.88 123.618 120.981C116.682 135.081 121.375 145.342 124.063 148.947C126.751 152.552 127.76 142.003 127.76 142.003L131.422 130.459Z" fill="#26274A"/>
<path d="M132.137 144.08C135.147 144.08 137.587 141.639 137.587 138.629C137.587 135.619 135.147 133.179 132.137 133.179C129.127 133.179 126.687 135.619 126.687 138.629C126.687 141.639 129.127 144.08 132.137 144.08Z" fill="#E4B1BE"/>
</svg>
